PathFileType	4	(X/Y/Z)	C:/Users/beibeiliu/ov580/test_trc\sequence.20_training_dense_left.trc
DataRate	CameraRate	NumFrames	NumMarkers	Units	OrigDataRate	OrigDataStartFrame	OrigNumFrames
120	120	23	19	mm	120	295	336
Frame#	Time	ThumbCMC			ThumbMCP			ThumbIP			ThumbTip			IndexMCP			IndexPIP			IndexTip			MiddleMCP			MiddlePIP			MiddleTip			RingMCP			RingPIP			RingTip			PinkyMCP			PinkyPIP			PinkyTip			BackHand1			BackHand2			BackHand3	
		X0	Y0	Z0	X1	Y1	Z1	X2	Y2	Z2	X3	Y3	Z3	X4	Y4	Z4	X5	Y5	Z5	X6	Y6	Z6	X7	Y7	Z7	X8	Y8	Z8	X9	Y9	Z9	X10	Y10	Z10	X11	Y11	Z11	X12	Y12	Z12	X13	Y13	Z13	X14	Y14	Z14	X15	Y15	Z15	X16	Y16	Z16	X17	Y17	Z17	X18	Y18	Z18	
294	2.45	-185.234	4.35789	28.3491	-188.567	-21.9458	19.9746	-189.137	-40.7401	10.9311	-190.854	-58.8018	3.08807	-186.371	-3.08028	-33.8988	-189.969	-20.5832	-56.7532	-197.511	-47.0067	-64.2493	-210.185	8.20098	-47.4407	-214.179	-5.76448	-68.4025	-226.241	-36.4671	-78.125	-226.859	16.1825	-38.7895	-232.382	0.259346	-62.1885	-239.077	-19.8791	-69.9044	-245.879	20.4807	-31.7681	-252.207	4.85436	-46.2308	-255.721	-17.9396	-52.0805	-221.051	36.2174	-3.9874	-218.877	51.6263	21.3735	-195.213	34.0256	11.7932	
295	2.45833	-188.334	7.23063	29.3376	-186.282	-24.7646	21.2253	-189.139	-41.2094	9.56984	-187.355	-63.2017	-0.179909	-184.355	-5.83552	-38.7859	-189.446	-22.3724	-57.6581	-194.528	-44.7021	-64.8866	-205.926	6.60921	-44.626	-213.421	-6.88909	-68.5779	-225.644	-36.1277	-77.7442	-224.02	13.4199	-39.1187	-232.291	-3.12047	-64.3524	-233.066	-24.4516	-69.5179	-245.875	19.1373	-29.1425	-250.054	4.18496	-47.7433	-253.922	-17.8624	-54.8556	-218.109	35.2926	-2.11878	-218.417	46.8582	17.6603	-195.647	31.8168	11.0073	
296	2.46667	-187.291	7.179	29.4491	-188.292	-21.8349	20.2672	-185.907	-44.6695	5.22569	-187.647	-62.1089	-3.05657	-184.654	-4.8245	-38.8718	-184.023	-19.8904	-55.7886	-193.715	-44.4387	-66.4526	-204.523	5.63692	-48.2238	-210.067	-10.4029	-70.2745	-224.178	-33.3958	-78.0629	-223.82	14.0482	-39.914	-230.949	-1.03765	-63.7711	-235.32	-22.6805	-70.9559	-244.517	17.7009	-32.5854	-247.061	3.5285	-48.6235	-250.713	-13.0755	-56.3552	-221.036	35.6581	-6.45661	-217.442	44.8839	19.9276	-195.109	33.2872	11.3348	
297	2.475	-184.984	4.5178	24.7244	-188.433	-20.5965	17.5915	-185.805	-41.7531	5.89043	-188.853	-59.8224	-6.00177	-182.221	-2.79731	-39.3064	-182.635	-20.4221	-58.0017	-192.44	-42.748	-69.0848	-208.146	10.1756	-47.725	-209.171	-8.3164	-71.2182	-221.075	-35.5797	-80.2552	-223.532	15.4543	-43.0818	-230.635	2.34606	-63.5425	-230.356	-23.2518	-73.2236	-244.96	19.7014	-30.2594	-246.458	7.62718	-47.6639	-252.899	-17.2364	-58.0844	-222.474	34.9796	-2.20821	-221.232	48.1584	16.7701	-196.939	31.4595	6.84203	
298	2.48333	-185.927	6.33427	23.9119	-184.255	-21.3908	17.4141	-185.523	-40.1719	0.857419	-186.555	-56.3168	-8.36879	-184.172	0.452318	-42.395	-185.24	-16.7412	-61.0947	-189.635	-40.9661	-72.169	-203.117	9.41697	-51.4893	-207.6	-4.5471	-73.1641	-222.612	-32.9627	-84.0136	-220.966	15.844	-45.3956	-224.931	0.47512	-67.508	-231.032	-17.4911	-75.2528	-241.072	18.6831	-34.3094	-249.386	5.36282	-51.539	-254.199	-10.7601	-59.6025	-218.951	35.1027	-3.95574	-218.689	47.3618	17.7335	-195.917	33.9015	7.37621	
299	2.49167	-184.6	7.17031	21.5742	-185.451	-16.7484	13.8894	-182.619	-38.0977	-3.65243	-183.283	-56.2306	-17.0888	-184.37	3.03989	-44.8083	-184.277	-11.0252	-63.9106	-187.683	-31.674	-73.8996	-206.488	13.6143	-54.6588	-207.616	-0.00189781	-75.0175	-214.914	-25.4333	-86.6433	-225.099	19.8805	-43.5975	-228.263	5.5092	-68.7179	-227.364	-13.7825	-78.2107	-244.756	21.9135	-32.6851	-245.246	10.911	-50.6011	-249.625	-13.0833	-64.9004	-220.793	38.3041	-5.13258	-220.841	48.9032	15.8113	-196.72	34.9813	5.87786	
300	2.5	-186.008	11.0308	24.7673	-181.879	-16.3792	7.13243	-181.542	-31.7589	-7.32934	-181.161	-50.9228	-21.0862	-184.929	8.99825	-46.6777	-179.05	-6.91584	-64.8071	-187.333	-27.1664	-78.643	-206.543	17.4447	-54.3531	-206.457	3.139	-77.469	-211.669	-21.3827	-89.3006	-223.919	22.3379	-48.7703	-223.995	10.1913	-68.1253	-227.937	-13.4718	-84.4288	-244.317	22.5442	-38.723	-247.753	12.018	-54.4071	-248.212	-6.23329	-65.496	-221.267	37.8033	-5.03173	-218.455	48.6723	14.0598	-199.105	38.3615	4.6331	
301	2.50833	-186.536	13.0628	19.913	-178.297	-13.0258	4.30351	-175.634	-29.3371	-8.70774	-175.748	-42.6382	-22.8641	-184.277	12.9926	-44.3276	-178.709	-0.705865	-65.9812	-179.611	-23.2031	-80.2649	-205.139	20.2807	-52.0286	-206.327	4.42927	-80.8575	-212.732	-15.8327	-94.2955	-220.899	22.5788	-46.9614	-225.558	12.8717	-72.0227	-221.743	-9.48052	-87.8511	-243.861	24.5851	-39.0392	-246.143	12.8143	-56.9074	-245.235	-3.59035	-69.773	-225.159	40.0041	-6.25423	-222.469	50.3272	14.5348	-195.888	40.6894	4.46623	
302	2.51667	-183.031	14.352	20.6498	-174.289	-10.2058	3.23148	-172.121	-22.3174	-10.3601	-168.985	-39.2143	-30.2847	-178.141	15.8235	-44.259	-175.539	4.67329	-66.7846	-176.428	-18.2472	-85.4161	-203.792	22.0529	-56.4719	-202.498	8.90641	-81.6262	-204.402	-8.83872	-97.8385	-220.187	24.635	-52.3175	-224.613	15.4212	-72.4724	-221.095	-4.34385	-91.5939	-240.831	24.4144	-40.2519	-242.018	14.5674	-59.0451	-244.579	-0.589287	-73.4294	-223.274	41.7153	-6.7264	-225.554	49.8146	14.7575	-196.122	41.1956	7.52045	
303	2.525	-184.467	16.0591	20.654	-171.707	-6.36641	2.7184	-169.745	-17.8692	-13.6691	-162.917	-33.0621	-29.2228	-180.749	19.1208	-46.3362	-176.282	6.59259	-70.6548	-173.405	-9.52788	-86.5567	-200.508	24.2312	-59.5718	-201.921	12.7599	-82.6789	-199.923	-4.89408	-102.432	-222.634	25.7422	-49.7623	-218.442	16.8247	-72.2814	-219.289	2.07087	-91.9734	-238.115	25.351	-39.8529	-244.679	15.5894	-61.8562	-244.448	5.12071	-74.5105	-222.031	41.6364	-10.7588	-224.926	51.27	11.8015	-197.316	42.744	6.28569	
304	2.53333	-184.1	16.9132	18.3679	-170.27	-5.14862	2.61062	-166.913	-13.9281	-17.7588	-161.047	-25.9102	-34.7492	-178.186	19.2751	-47.0396	-173.199	9.16531	-70.8732	-171.441	-3.94971	-89.5359	-202.262	25.4542	-57.2072	-200.707	18.7591	-79.1144	-200.88	4.22253	-105.167	-219.045	26.1443	-54.0905	-216.523	17.8218	-76.3544	-218.566	8.36839	-91.3285	-239.752	25.4911	-42.6772	-241.437	17.536	-61.0718	-244.304	9.24981	-78.36	-219.522	43.5034	-6.81532	-220.07	47.8467	13.8029	-193.042	42.521	5.20412	
305	2.54167	-181.962	17.9323	16.8665	-172.929	-0.934054	1.46296	-161.181	-12.0471	-18.3015	-154.306	-23.3281	-34.2428	-172.85	19.6047	-49.1236	-171.118	13.8929	-69.5496	-166.694	0.190304	-92.8967	-201.089	27.338	-55.0804	-196.799	20.9531	-79.1073	-194.784	9.81899	-105.825	-220.394	27.4083	-52.3386	-221.744	22.0805	-73.3268	-216.3	11.294	-93.3197	-241.503	26.7673	-38.8956	-243.214	20.694	-60.37	-244.61	12.2916	-80.3509	-220.901	41.7106	-7.96149	-223.139	50.3198	11.2598	-195.517	43.4963	6.47123	
306	2.55	-182.985	18.0236	20.2045	-171.705	0.436962	-0.422518	-158.951	-8.90493	-20.5387	-149.437	-18.8596	-30.951	-176.724	21.4201	-49.0522	-171.334	14.0961	-72.1591	-166.366	5.19957	-91.3304	-199.793	28.042	-56.5574	-197.306	22.5503	-79.992	-194.27	14.021	-107.341	-221.383	27.6697	-54.1799	-218.608	21.1448	-77.609	-219.751	15.1704	-93.7954	-237.893	26.369	-39.9289	-242.681	20.0198	-60.8905	-247.604	15.2675	-77.739	-219.612	41.7799	-9.64083	-222.499	49.0037	12.9631	-198.048	44.1981	4.57625	
307	2.55833	-178.81	18.6808	20.8829	-165.858	0.753926	4.03554	-157.885	-6.09861	-16.7187	-146.411	-14.3296	-31.8117	-174.91	22.9179	-47.5758	-171.684	16.3906	-69.8093	-167.489	9.4321	-89.3654	-201.287	27.736	-57.0579	-198.247	23.8236	-83.5079	-195.901	18.3079	-105.538	-218.222	27.3972	-53.7078	-218.149	22.0724	-75.2237	-221.845	17.6003	-93.1564	-241.726	25.4911	-41.2346	-244.338	21.5101	-58.0657	-249.868	16.9971	-79.0911	-222.293	40.5269	-7.97408	-221.213	47.5363	12.6368	-194.439	43.7809	5.98849	
308	2.56667	-181.483	18.9586	17.3232	-166.418	3.19508	4.42036	-153.167	-5.00438	-14.274	-144.628	-12.2609	-26.6886	-174.643	22.3425	-46.9682	-167.302	17.2555	-69.4256	-165.66	11.3329	-89.2478	-200.571	28.8126	-55.5829	-197.075	23.9796	-79.3732	-198.254	22.1419	-102.867	-221.709	27.2442	-53.8093	-222.032	24.0008	-73.732	-218.523	18.6821	-92.1356	-243.478	25.0033	-37.2828	-248.398	20.2757	-59.3411	-251.503	20.4094	-74.5756	-219.747	40.2947	-7.59875	-225.047	46.1207	13.9493	-198.885	42.2303	4.02757	
309	2.575	-181.008	19.5837	16.5938	-168.983	5.79158	0.78207	-153.982	-1.74058	-17.7439	-140.518	-8.16478	-31.1445	-176.687	23.2174	-46.1265	-173.208	18.1844	-69.8415	-165.829	13.6352	-89.9011	-198.896	27.7117	-56.173	-196.427	24.0262	-77.5637	-200.281	21.6948	-103.615	-223.857	27.0477	-50.2347	-220.108	22.878	-74.0709	-222.28	19.195	-97.4198	-240.835	24.2045	-41.0529	-246.881	20.7385	-58.004	-250.934	19.6588	-77.7394	-225.057	40.8862	-9.24089	-225.686	45.0615	16.9293	-199.284	42.8339	1.61545	
310	2.58333	-182.477	20.7495	16.9385	-165.911	7.10199	1.35429	-157.578	0.806376	-15.1935	-142.027	-6.27727	-26.637	-177.128	23.3884	-46.7413	-175.363	18.889	-69.5387	-170.822	13.7767	-90.7492	-201.871	27.107	-56.6696	-202.16	24.5263	-79.7042	-200.603	22.4735	-105.807	-225.316	26.4202	-50.2738	-223.61	23.256	-72.9841	-227.953	19.6155	-95.7998	-244.264	23.3679	-40.3142	-250.486	19.0904	-58.8038	-252.56	18.7416	-75.434	-227.783	39.4905	-9.12237	-223.728	44.875	14.4254	-199.751	40.87	6.64412	
311	2.59167	-185.94	20.1132	20.1516	-170.001	7.42968	0.0673212	-153.018	1.29749	-13.184	-144.131	-3.40868	-28.0548	-183.278	23.6223	-49.1066	-176.564	19.039	-68.8892	-167.711	14.6026	-88.9253	-202.564	27.09	-55.19	-205.582	24.1996	-79.8067	-202.26	21.3395	-106.494	-225.785	25.544	-50.2423	-228.533	22.7885	-72.8016	-229.197	19.3883	-92.8994	-244.486	22.3414	-41.0754	-249.836	19.1167	-57.7413	-258.685	17.7344	-74.0841	-229.099	37.2544	-9.22795	-226.245	43.5026	17.7731	-198.988	41.4202	1.62386	
312	2.6	-183.029	20.538	18.2757	-171.306	8.88882	1.34418	-157.988	2.86509	-13.5177	-143.811	-2.32232	-28.4018	-182.422	22.7514	-47.7783	-176.879	16.9233	-70.4614	-172.493	13.0124	-92.3162	-209.398	25.982	-54.9939	-202.542	22.2051	-81.1777	-204.165	19.7117	-107.044	-229.046	24.2892	-51.4732	-227.52	21.025	-71.4821	-227.686	16.8793	-93.6923	-248.377	20.8093	-41.0101	-253.401	16.3176	-57.7531	-261.938	18.1787	-71.6704	-229.391	36.4981	-10.1116	-231.307	42.8399	17.0499	-203.765	39.4676	6.09176	
313	2.60833	-185.132	19.9283	22.3686	-173.533	8.98336	5.47446	-157.141	3.27888	-17.0268	-142.616	-1.22157	-25.1951	-184.892	21.3655	-45.0048	-182.112	16.7651	-67.6436	-173.95	12.2615	-90.1558	-206.745	24.9589	-55.3322	-210.949	21.5614	-79.7881	-207.331	18.9622	-105.633	-230.335	23.0571	-52.0963	-234.995	18.9329	-71.9871	-231.992	16.0517	-93.9117	-248.769	18.7102	-35.9006	-255.405	16.3039	-55.7496	-262.453	14.6161	-72.8159	-227.821	37.2675	-10.5853	-232.516	44.8951	17.0484	-204.121	39.8819	4.64949	
314	2.61667	-189.023	21.2083	21.7473	-174.172	8.80833	2.58421	-158.643	3.33311	-11.6046	-147.505	-2.30845	-24.6872	-188.589	21.3158	-45.431	-183.995	15.8606	-68.7169	-174.898	11.4653	-90.9243	-212.865	24.0347	-54.0692	-210.884	20.8944	-78.4315	-209.389	17.7051	-104.083	-235.672	22.8788	-48.4664	-231.422	18.8231	-69.511	-232.879	16.1149	-90.8874	-250.39	19.2938	-38.8712	-257.702	15.6335	-51.8832	-265.84	15.6849	-71.065	-233.629	35.0058	-11.2137	-236.096	42.9663	17.201	-210.014	39.5761	2.5637	
315	2.625	-189.927	21.2271	21.3845	-175.798	8.47881	4.05098	-162.309	2.64656	-11.33	-144.322	-1.40338	-25.6773	-188.154	20.5918	-50.7786	-181.595	16.7532	-70.211	-174.9	11.7752	-90.4724	-212.25	23.6954	-58.9251	-210.548	21.2731	-81.3542	-213.288	17.9787	-104.684	-234.49	23.0244	-49.8503	-235.371	19.1892	-72.7796	-237.7	16.3418	-91.8766	-252.844	18.9912	-38.4187	-259.043	15.2118	-56.6426	-267.271	12.8785	-75.1304	-231.588	35.774	-8.32799	-237.734	43.417	15.1665	-211.177	40.9569	3.76931	
316	2.63333	-192.468	20.935	19.773	-177.399	9.98214	1.44465	-158.252	4.47201	-13.7707	-150.402	-2.01372	-23.6365	-190.549	21.9512	-44.7897	-187.035	17.6476	-67.8259	-174.651	11.6728	-91.7543	-212.805	24.2349	-56.0512	-215.334	20.5575	-79.2859	-214.341	17.8079	-106.563	-237.871	23.0086	-51.9785	-237.957	20.43	-71.0973	-240.692	16.8649	-90.8625	-258.473	19.583	-39.606	-262.928	14.7072	-54.8011	-266.123	13.4492	-72.267	-233.815	36.5508	-6.78167	-235.757	44.9816	17.0264	-208.256	41.7687	3.408	
